<?xml version="1.0" standalone="no"?> <!DOCTYPE svg PUBLIC "-//W3C//DTD SVG 1.0//EN" "http://www.w3.org/TR/2001/REC-SVG-20010904/DTD/svg10.dtd" > <svg xmlns="http://www.w3.org/2000/svg" width="100%" height="100%">
<defs >
<font id="whitneybook" horiz-adv-x="413" ><font-face
    font-family="Whitney-Book"
    units-per-em="1000"
    panose-1="2 0 6 3 4 0 0 2 0 3"
    ascent="0"
    descent="0"
    alphabetic="0" />
<missing-glyph horiz-adv-x="500" />
<glyph unicode=" " glyph-name="space" horiz-adv-x="226" />
<glyph unicode="!" glyph-name="exclam" horiz-adv-x="268" d="M174 690H94L114 191L154 200L174 690ZM173 0V98H95V0H173Z" />
<glyph unicode="&quot;" glyph-name="quotedbl" horiz-adv-x="387" d="M317 676H237L259 489L296 481L317 676ZM149 676H70L90 489L128 481L149 676Z" />
<glyph unicode="#" glyph-name="numbersign" horiz-adv-x="648" d="M206 180H391L363 -2H416L444 180H583L574 236H453L485 440H604V496H494L522 672L471 683L441 496H256L285 678H232L203 496H64L73 440H194L162 236H44V180H153L125 4L177 -7L206 180ZM247 440H432L400
236H215L247 440Z" />
<glyph unicode="$" glyph-name="dollar" horiz-adv-x="536" d="M346 674L358 743L309 755L297 679Q291 680 285 680Q279 680 273 680Q227 680 189 669T124 635T83 580T68 508Q68 472 79 445T112 398T166 361T243 329L201 56Q163 63 129 75T63 103L54 41Q83 28
117 17T191 1L173 -112L221 -123L240 -4H257Q360 -4 418 47T476 184Q476 254 434 297T298 373L337 618Q365 613 390 603T439 582L449 644Q427 654 401 661T346 674ZM248 51L289 314Q327 300 351 286T390 255T409 220T415 179Q415 122 377 87T263 51H248ZM289 625L252
389Q186 413 158 439T129 513Q129 562 163 594T266 626Q272 626 277 626Q283 626 289 625Z" />
<glyph unicode="%" glyph-name="percent" horiz-adv-x="880" d="M366 494Q366 538 354 573T322 633T273 671T212 684Q179 684 151 671T102 633T69 573T57 494Q57 450 69 415T101 355T150 317T212 304Q245 304 273 317T321 354T354 414T366 494ZM681 670L629 683L198
6L249 -7L681 670ZM307 494Q307 434 284 393T213 352Q190 352 172 363T142 393T123 438T116 494Q116 554 140 594T211 635Q234 635 252 624T282 594T300 550T307 494ZM823 182Q823 226 811 261T778 321T729 359T668 372Q635 372 607 359T559 321T526 261T514 182Q514
138 526 103T558 43T607 5T668 -8Q701 -8 729 5T778 43T811 103T823 182ZM763 182Q763 122 740 82T669 41Q646 41 628 52T598 82T580 126T573 182Q573 242 597 283T668 324Q715 324 739 283T763 182Z" />
<glyph unicode="&amp;" glyph-name="ampersand" horiz-adv-x="683" d="M671 11L525 159Q551 205 569 262T600 389L537 402Q529 341 515 292T481 203L279 408Q240 448 223 477T205 544Q205 586 233 613T314 641Q350 641 388 628T466 589L479 658Q443 678 403 689T316
701Q274 701 241 689T184 655T149 604T136 541Q136 493 154 459T208 386Q172 369 142 349T91 303T57 246T44 175Q44 133 59 99T102 40T171 3T263 -11Q332 -11 388 18T489 104L600 -6L671 11ZM447 147Q409 96 363 72T264 48Q231 48 203 58T156 86T125 128T114 181Q114
235 149 276T250 344L447 147Z" />
<glyph unicode="&apos;" glyph-name="quotesingle" horiz-adv-x="219" d="M149 676H70L90 489L128 481L149 676Z" />
<glyph unicode="(" glyph-name="parenleft" horiz-adv-x="398" d="M349 -82Q244 10 192 104T140 309Q140 425 187 510T334 665L323 727Q199 648 135 546T70 311Q70 247 85 192T127 87T194 -8T283 -96L349 -82Z" />
<glyph unicode=")" glyph-name="parenright" horiz-adv-x="398" d="M328 316Q328 380 313 435T271 540T204 635T115 723L49 709Q154 616 206 523T259 318Q259 202 211 117T64 -38L75 -100Q198 -21 263 81T328 316Z" />
<glyph unicode="*" glyph-name="asterisk" horiz-adv-x="406" d="M357 576L350 596L226 570L214 696H191L179 570L55 596L49 576L164 525L100 413L118 401L203 498L288 401L305 413L241 525L357 576Z" />
<glyph unicode="+" glyph-name="plus" horiz-adv-x="570" d="M512 311V365H314V567H256V365H57V311H256V109H314V311H512Z" />
<glyph unicode="," glyph-name="comma" horiz-adv-x="219" d="M164 98H84L33 -124L68 -133L164 98Z" />
<glyph unicode="-" glyph-name="hyphen" horiz-adv-x="364" d="M303 250V316H61V250H303Z" />
<glyph unicode="." glyph-name="period" horiz-adv-x="219" d="M148 0V98H71V0H148Z" />
<glyph unicode="/" glyph-name="slash" horiz-adv-x="517" d="M496 684L437 697L-35 -112L24 -124L496 684Z" />
<glyph unicode="0" glyph-name="zero" horiz-adv-x="616" d="M556 339Q556 419 539 484T490 594T411 664T308 689Q251 689 205 664T127 594T78 483T60 337Q60 257 77 192T126 82T205 12T308 -13Q365 -13 411 12T489 82T538 193T556 339ZM488 338Q488 272 476 218T442
126T385 67T308 46Q264 46 231 66T175 125T140 218T128 338Q128 404 140 458T174 550T230 609T308 630Q351 630 385 610T441 551T476 458T488 338Z" />
<glyph unicode="1" glyph-name="one" horiz-adv-x="355" d="M249 0V679H195L29 603L38 549L183 607V0H249Z" />
<glyph unicode="2" glyph-name="two" horiz-adv-x="535" d="M476 0L467 59H138L347 277Q378 310 400 338T437 392T458 446T465 505Q465 589 413 639T266 689Q203 689 155 668T68 614L78 548Q118 583 163 606T262 629Q325 629 360 596T396 501Q396 477 391 456T375
413T345 367T299 314L50 49V0H476Z" />
<glyph unicode="3" glyph-name="three" horiz-adv-x="523" d="M464 183Q464 255 426 297T322 358Q349 367 372 380T413 413T441 459T451 518Q451 552 439 583T401 638T338 675T249 689Q188 689 142 672T56 627L65 564Q103 593 147 611T246 629Q314 629 348 597T382
515Q382 455 338 421T206 386H160L169 327H199Q301 327 348 288T395 182Q395 120 353 84T238 47Q184 47 142 61T56 106L45 40Q81 17 130 2T234 -13Q285 -13 327 1T400 42T447 104T464 183Z" />
<glyph unicode="4" glyph-name="four" horiz-adv-x="593" d="M560 160V215H449V679H368L41 207V160H387V0H449V160H560ZM387 215H114L387 606V215Z" />
<glyph unicode="5" glyph-name="five" horiz-adv-x="534" d="M480 208Q480 254 465 291T421 354T351 395T258 409Q221 409 194 404T145 390L161 617H455L445 676H105L81 336L126 325Q152 336 181 343T252 350Q330 350 371 311T413 205Q413 165 399 136T361 86T305
56T238 46Q184 46 142 61T61 101L51 37Q86 15 131 2T235 -12Q286 -12 330 3T408 46T460 115T480 208Z" />
<glyph unicode="6" glyph-name="six" horiz-adv-x="568" d="M131 346Q149 460 226 528T422 629L413 690Q334 668 269 633T158 546T87 428T61 274Q61 207 79 154T128 63T203 7T299 -13Q346 -13 386 3T456 47T503 116T520 205Q520 251 506 288T464 352T399 393T314
407Q263 407 218 391T131 346ZM127 281Q166 312 210 330T303 349Q378 349 415 309T452 202Q452 130 411 88T300 45Q261 45 230 62T175 109T140 183T127 277V281Z" />
<glyph unicode="7" glyph-name="seven" horiz-adv-x="532" d="M478 626V676H46L55 616H403L134 8L198 -7L478 626Z" />
<glyph unicode="8" glyph-name="eight" horiz-adv-x="571" d="M312 376Q266 393 235 408T185 439T158 475T150 520Q150 542 159 562T185 597T228 622T288 632Q352 632 389 601T426 520Q426 476 396 439T312 376ZM261 334Q314 315 350 298T407 263T438 223T447
173Q447 143 435 120T401 79T350 53T288 44Q216 44 170 79T124 174Q124 226 161 266T261 334ZM202 357Q136 325 97 279T57 170Q57 132 72 99T117 41T189 2T286 -13Q336 -13 378 1T450 39T497 98T514 172Q514 242 476 283T371 354Q396 368 418 385T456 423T482 469T492
523Q492 558 478 588T437 640T374 676T290 689Q244 689 206 676T141 640T98 586T83 519Q83 457 116 420T202 357Z" />
<glyph unicode="9" glyph-name="nine" horiz-adv-x="568" d="M435 320Q415 208 336 141T136 47L146 -14Q227 6 294 41T408 128T481 248T507 402Q507 469 490 522T441 613T366 669T270 689Q220 689 180 672T110 626T65 556T49 468Q49 420 63 382T105 316T170 275T255
260Q306 260 350 275T435 320ZM442 385Q403 354 359 337T266 319Q191 319 154 360T116 471Q116 543 157 587T269 631Q307 631 339 615T394 568T429 494T442 399V385Z" />
<glyph unicode=":" glyph-name="colon" horiz-adv-x="227" d="M153 376V473H75V376H153ZM153 0V98H75V0H153Z" />
<glyph unicode=";" glyph-name="semicolon" horiz-adv-x="227" d="M159 376V473H81V376H159ZM159 98H79L27 -124L63 -133L159 98Z" />
<glyph unicode="&lt;" glyph-name="less" horiz-adv-x="570" d="M496 89V154L126 339L496 523V587L58 364V312L496 89Z" />
<glyph unicode="=" glyph-name="equal" horiz-adv-x="604" d="M527 418V478H77V418H527ZM527 198V258H77V198H527Z" />
<glyph unicode="&gt;" glyph-name="greater" horiz-adv-x="570" d="M512 312V364L74 587V522L444 337L74 153V89L512 312Z" />
<glyph unicode="?" glyph-name="question" horiz-adv-x="498" d="M442 533Q442 572 428 603T387 657T324 691T245 703Q187 703 137 684T47 635L56 568Q98 601 143 621T242 641Q301 641 336 612T372 530Q372 505 365 485T340 445T293 408T222 368L194 356L206 190L250
200L259 321Q301 343 335 364T393 409T429 464T442 533ZM267 0V98H189V0H267Z" />
<glyph unicode="@" glyph-name="at" horiz-adv-x="841" d="M489 196Q449 147 420 125T364 102Q338 102 323 123T307 188Q307 235 319 272T352 336T399 376T454 390Q473 390 487 387T517 376L489 196ZM488 139Q495 97 526 75T604 52Q641 52 673 69T730 120T768
202T782 312Q782 384 761 441T699 540T599 603T466 625Q379 625 304 592T174 499T88 358T56 183Q56 105 78 45T142 -56T243 -118T378 -140Q446 -140 503 -127T603 -92L598 -63Q553 -86 499 -98T382 -111Q317 -111 264 -93T172 -38T113 54T92 184Q92 275 121 350T200
480T318 565T463 595Q528 595 581 576T671 521T728 432T748 311Q748 256 737 215T707 145T664 103T612 88Q577 88 560 107T543 156Q543 170 544 184T547 206L579 411Q552 422 522 430T459 438Q418 438 380 420T313 367T267 287T249 183Q249 151 257 127T279 86T311
61T351 52Q388 52 419 73T488 139Z" />
<glyph unicode="A" glyph-name="A" horiz-adv-x="691" d="M652 8L382 694H311L39 0H109L194 223H496L585 -7L652 8ZM473 284H219L345 613L473 284Z" />
<glyph unicode="B" glyph-name="B" horiz-adv-x="547" d="M496 199Q496 268 459 309T360 367Q408 387 436 424T465 518Q465 596 412 643T252 690H92V0H251Q306 0 351 12T429 50T478 112T496 199ZM397 515Q397 461 360 426T248 390H160V630H250Q325 630 361 600T397
515ZM428 195Q428 130 382 95T257 60H160V333H253Q334 333 381 300T428 195Z" />
<glyph unicode="C" glyph-name="C" horiz-adv-x="648" d="M584 56L574 122Q532 90 483 70T377 50Q321 50 276 71T198 132T149 225T132 346Q132 412 149 466T198 559T275 619T378 641Q431 641 476 622T562 574L573 644Q534 671 486 687T379 703Q308 703 250 677T149
603T84 490T61 344Q61 264 83 199T147 86T246 13T374 -13Q436 -13 490 7T584 56Z" />
<glyph unicode="D" glyph-name="D" horiz-adv-x="701" d="M639 346Q639 423 615 486T546 595T433 665T280 690H92V0H277Q360 0 427 24T541 93T613 202T639 346ZM568 345Q568 274 548 221T491 133T400 80T281 62H161V628H281Q345 628 398 610T489 557T547 468T568 345Z" />
<glyph unicode="E" glyph-name="E" horiz-adv-x="504" d="M462 0V62H161V330H401L391 392H161V628H452V690H92V0H462Z" />
<glyph unicode="F" glyph-name="F" horiz-adv-x="477" d="M438 628V690H92V0H161V319H393L383 381H161V628H438Z" />
<glyph unicode="G" glyph-name="G" horiz-adv-x="694" d="M612 57V362H368L378 300H544V93Q509 72 472 61T386 50Q325 50 278 71T199 130T149 223T132 345Q132 412 149 466T197 560T274 620T378 641Q438 641 485 622T571 572L583 643Q543 672 493 687T379 703Q307
703 248 677T148 603T84 490T61 344Q61 265 83 200T146 87T248 13T385 -13Q452 -13 508 6T612 57Z" />
<glyph unicode="H" glyph-name="H" horiz-adv-x="705" d="M613 0V690H544V392H161V690H92V0H161V330H544V0H613Z" />
<glyph unicode="I" glyph-name="I" horiz-adv-x="268" d="M168 0V690H99V0H168Z" />
<glyph unicode="J" glyph-name="J" horiz-adv-x="364" d="M276 168V690H207V169Q207 110 179 82T99 54Q79 54 61 56T27 64L37 0Q50 -2 65 -4T98 -6Q177 -6 226 36T276 168Z" />
<glyph unicode="K" glyph-name="K" horiz-adv-x="606" d="M589 9L238 369L570 690H484L161 376V690H92V0H161V356L515 -7L589 9Z" />
<glyph unicode="L" glyph-name="L" horiz-adv-x="466" d="M437 0L427 62H161V690H92V0H437Z" />
<glyph unicode="M" glyph-name="M" horiz-adv-x="907" d="M831 0L776 690H692L454 88L217 690H132L77 0H141L186 589L426 -4H480L719 589L764 0H831Z" />
<glyph unicode="N" glyph-name="N" horiz-adv-x="705" d="M613 0V690H548V127L157 690H92V0H157V581L560 0H613Z" />
<glyph unicode="O" glyph-name="O" horiz-adv-x="745" d="M684 346Q684 425 662 490T598 603T500 677T373 703Q304 703 247 677T148 603T84 490T61 344Q61 265 83 200T147 87T245 13T371 -13Q441 -13 498 13T597 87T661 201T684 346ZM613 344Q613 278 596 224T548
131T472 71T373 49Q319 49 275 70T199 131T150 225T132 346Q132 412 149 466T197 559T273 619T372 641Q426 641 470 620T546 559T595 465T613 344Z" />
<glyph unicode="P" glyph-name="P" horiz-adv-x="533" d="M489 496Q489 590 429 640T263 690H92V0H161V291H247Q300 291 344 304T421 342T471 406T489 496ZM419 494Q419 422 374 387T250 352H161V629H258Q337 629 378 595T419 494Z" />
<glyph unicode="Q" glyph-name="Q" horiz-adv-x="747" d="M684 346Q684 425 662 490T598 603T500 677T373 703Q304 703 247 677T148 603T84 490T61 344Q61 205 120 121T287 -4L650 -145L663 -80L446 1Q500 13 543 42T618 116T667 219T684 346ZM613 344Q613 277
596 222T548 128T472 68T373 46Q319 46 275 67T199 128T150 223T132 345Q132 412 149 466T197 560T273 620T372 641Q426 641 470 620T546 559T595 466T613 344Z" />
<glyph unicode="R" glyph-name="R" horiz-adv-x="567" d="M419 498Q419 432 375 398T253 364H161V629H265Q340 629 379 595T419 498ZM325 314Q361 321 391 336T442 375T476 430T489 502Q489 593 430 641T268 690H92V0H161V305H250L474 -7L544 8L325 314Z" />
<glyph unicode="S" glyph-name="S" horiz-adv-x="512" d="M458 182Q458 220 448 249T416 302T360 347T278 389Q238 407 212 422T169 453T146 487T139 529Q139 574 171 605T265 637Q309 637 345 625T410 593L420 662Q393 678 355 688T268 698Q225 698 189 686T127
651T85 596T70 525Q70 488 79 461T110 410T166 367T250 325Q289 308 316 292T359 259T382 222T389 177Q389 118 349 86T247 53Q194 53 149 69T71 105L61 35Q94 17 140 5T244 -8Q289 -8 328 5T396 42T441 102T458 182Z" />
<glyph unicode="T" glyph-name="T" horiz-adv-x="581" d="M553 628L543 690H35V628H259V0H327V628H553Z" />
<glyph unicode="U" glyph-name="U" horiz-adv-x="681" d="M600 263V690H531V263Q531 164 483 108T340 51Q292 51 257 66T198 110T162 179T150 267V690H81V258Q81 198 98 148T149 63T230 9T339 -11Q400 -11 448 8T530 63T582 149T600 263Z" />
<glyph unicode="V" glyph-name="V" horiz-adv-x="680" d="M641 690H569L340 85L107 697L39 682L308 -4H370L641 690Z" />
<glyph unicode="W" glyph-name="W" horiz-adv-x="1026" d="M980 690H911L741 106L549 690H478L288 106L116 697L48 682L255 -1H313L512 595L712 -1H772L980 690Z" />
<glyph unicode="X" glyph-name="X" horiz-adv-x="635" d="M279 360L36 0H111Q111 0 126 23T164 80T213 155T263 229T301 286T316 309Q316 309 332 286T371 227T422 152T473 76T512 18T528 -6L596 9L355 362L576 690H501L318 413L128 695L60 681L279 360Z" />
<glyph unicode="Y" glyph-name="Y" horiz-adv-x="628" d="M595 690H520L314 347L102 697L34 683L278 286V0H347V287L595 690Z" />
<glyph unicode="Z" glyph-name="Z" horiz-adv-x="608" d="M555 0L546 59H141L548 641V690H77L86 631H465L57 49V0H555Z" />
<glyph unicode="[" glyph-name="bracketleft" horiz-adv-x="407" d="M351 -105L343 -53H161V638H347V690H97V-105H351Z" />
<glyph unicode="\" glyph-name="backslash" horiz-adv-x="517" d="M552 -112L80 696L21 684L493 -125L552 -112Z" />
<glyph unicode="]" glyph-name="bracketright" horiz-adv-x="407" d="M309 -105V690H55L64 638H246V-53H60V-105H309Z" />
<glyph unicode="^" glyph-name="asciicircum" horiz-adv-x="456" d="M358 555L259 695H198L93 550H135L227 632L322 547L358 555Z" />
<glyph unicode="_" glyph-name="underscore" horiz-adv-x="466" d="M465 -105V-51H1V-105H465Z" />
<glyph unicode="`" glyph-name="grave" horiz-adv-x="456" d="M312 550L216 703L130 684L266 550H312Z" />
<glyph unicode="a" glyph-name="a" horiz-adv-x="489" d="M416 0V337Q416 483 257 483Q206 483 165 472T81 442L90 383Q129 402 170 413T253 425Q298 425 324 404T351 334V303Q271 295 214 281T119 245T65 192T47 119Q47 56 86 23T188 -10Q239 -10 280 11T355
63L366 0H416ZM351 117Q316 85 276 66T198 46Q160 46 137 65T113 123Q113 147 124 167T162 204T235 232T351 251V117Z" />
<glyph unicode="b" glyph-name="b" horiz-adv-x="528" d="M479 250Q479 309 464 353T423 426T363 469T289 483Q239 483 204 461T143 411V718L77 706V25Q117 11 158 3T249 -6Q298 -6 340 9T413 57T461 137T479 250ZM412 247Q412 196 400 159T367 98T317 63T252
51Q216 51 191 56T143 70V342Q175 379 208 401T282 424Q339 424 375 379T412 247Z" />
<glyph unicode="c" glyph-name="c" horiz-adv-x="466" d="M422 44L413 104Q376 72 342 60T269 48Q197 48 156 98T115 237Q115 325 155 375T263 426Q304 426 338 412T407 369L418 435Q389 456 351 469T264 483Q219 483 180 467T111 420T65 342T48 236Q48 177 64
132T109 55T177 7T262 -10Q310 -10 348 3T422 44Z" />
<glyph unicode="d" glyph-name="d" horiz-adv-x="531" d="M454 0V718L388 706V456Q363 467 332 473T265 480Q222 480 183 464T114 416T67 336T49 223Q49 163 64 120T105 47T166 4T240 -10Q292 -10 328 13T392 69L404 0H454ZM388 134Q356 96 322 73T246 49Q189
49 153 94T116 226Q116 276 127 313T159 374T207 411T267 423Q304 423 332 416T388 395V134Z" />
<glyph unicode="e" glyph-name="e" horiz-adv-x="491" d="M443 246Q443 295 432 338T396 413T336 464T252 483Q208 483 171 466T107 417T64 340T48 237Q48 176 64 130T108 52T175 6T261 -10Q316 -10 361 8T442 57L432 117Q395 85 354 66T265 47Q193 47 155 95T114
232H443V246ZM375 284H117Q127 353 161 391T252 430Q309 430 339 389T375 284Z" />
<glyph unicode="f" glyph-name="f" horiz-adv-x="298" d="M281 652L271 713Q264 714 257 714T237 715Q176 715 140 685T104 588V473H32V417H104V0H169V417H275L266 473H169V583Q169 622 188 638T241 655Q267 655 281 652Z" />
<glyph unicode="g" glyph-name="g" horiz-adv-x="502" d="M184 47Q197 44 210 42T241 35L287 27Q350 15 375 -1T401 -46Q401 -81 358 -105T243 -130Q173 -130 131 -110T88 -53Q88 3 184 47ZM345 322Q345 274 315 242T233 210Q181 210 151 242T121 320Q121 369
150 401T231 434Q256 434 277 426T313 402T336 367T345 322ZM351 443Q302 483 231 483Q196 483 165 472T109 440T71 389T56 322Q56 273 80 237T143 181Q120 167 108 152T96 118Q96 89 131 69Q23 13 23 -57Q23 -88 39 -111T85 -149T153 -172T239 -180Q285 -180 325
-171T397 -143T446 -99T464 -38Q464 15 423 41T302 82L267 89Q234 95 214 99T182 108T166 118T161 131Q161 148 192 165Q202 163 212 162T233 161Q268 161 300 172T356 204T395 254T410 322Q410 368 385 406L480 416L469 481L351 443Z" />
<glyph unicode="h" glyph-name="h" horiz-adv-x="523" d="M450 0V339Q450 407 415 445T309 483Q261 483 221 461T143 406V718L77 706V0H143V342Q182 380 220 402T296 424Q341 424 362 398T384 326V0H450Z" />
<glyph unicode="i" glyph-name="i" horiz-adv-x="233" d="M164 634Q164 654 151 668T117 682Q97 682 83 668T69 634Q69 614 83 600T117 586Q137 586 150 600T164 634ZM149 0V473H84V0H149Z" />
<glyph unicode="j" glyph-name="j" horiz-adv-x="233" d="M164 634Q164 654 151 668T117 682Q97 682 83 668T69 634Q69 614 83 600T117 586Q137 586 150 600T164 634ZM149 -73V473H84V-66Q84 -96 71 -109T33 -122Q10 -122 -6 -118L4 -177Q10 -179 21 -179T42 -180Q89
-180 119 -155T149 -73Z" />
<glyph unicode="k" glyph-name="k" horiz-adv-x="466" d="M450 6L213 262L433 473H350L143 270V718L77 706V0H143V251L378 -7L450 6Z" />
<glyph unicode="l" glyph-name="l" horiz-adv-x="234" d="M149 0V718L84 706V0H149Z" />
<glyph unicode="m" glyph-name="m" horiz-adv-x="819" d="M746 0V339Q746 407 713 445T608 483Q559 483 517 460T436 401Q423 440 392 461T306 483Q258 483 218 461T139 405L128 473H77V0H143V344Q181 382 218 403T293 424Q339 424 359 398T379 326V0H444V343Q483
381 520 402T594 424Q640 424 660 398T680 326V0H746Z" />
<glyph unicode="n" glyph-name="n" horiz-adv-x="523" d="M450 0V338Q450 407 415 445T309 483Q261 483 220 461T139 403L128 473H77V0H143V342Q182 380 220 402T296 424Q341 424 362 398T384 326V0H450Z" />
<glyph unicode="o" glyph-name="o" horiz-adv-x="523" d="M475 236Q475 295 459 341T414 418T346 466T260 483Q215 483 177 467T110 419T65 341T48 236Q48 177 64 132T108 55T176 7T260 -10Q305 -10 344 6T413 54T458 131T475 236ZM407 236Q407 152 370 99T260
46Q225 46 198 60T153 100T125 160T115 236Q115 278 124 313T152 373T198 413T260 427Q296 427 323 413T369 373T397 312T407 236Z" />
<glyph unicode="p" glyph-name="p" horiz-adv-x="531" d="M482 250Q482 309 467 353T426 426T366 469T292 483Q240 483 204 460T139 405L128 473H77V-183L143 -172V17Q169 6 200 0T266 -6Q309 -6 348 9T417 57T464 137T482 250ZM415 247Q415 197 404 161T372 99T324
62T264 50Q227 50 199 57T143 78V339Q175 378 209 401T285 424Q342 424 378 379T415 247Z" />
<glyph unicode="q" glyph-name="q" horiz-adv-x="528" d="M451 -172V449Q411 462 370 471T279 480Q230 480 188 464T115 416T67 336T49 223Q49 163 64 120T105 47T165 4T239 -10Q289 -10 324 12T385 62V-183L451 -172ZM385 132Q354 95 320 72T246 49Q189 49 153
94T116 226Q116 327 160 375T276 423Q312 423 337 417T385 403V132Z" />
<glyph unicode="r" glyph-name="r" horiz-adv-x="344" d="M320 421L309 483Q280 482 255 473T209 449T171 415T141 376L126 473H77V0H143V297Q155 321 173 342T214 381T264 408T320 421Z" />
<glyph unicode="s" glyph-name="s" horiz-adv-x="438" d="M391 128Q391 159 381 182T350 223T298 254T225 278Q165 294 142 311T119 358Q119 387 142 406T215 425Q250 425 285 415T353 388L364 451Q332 465 296 474T217 483Q143 483 100 447T56 355Q56 326 64
305T91 267T138 238T206 216Q241 207 264 198T302 178T322 154T328 123Q328 87 300 67T221 47Q173 47 131 62T56 98L45 34Q76 17 121 4T215 -9Q297 -9 344 27T391 128Z" />
<glyph unicode="t" glyph-name="t" horiz-adv-x="330" d="M289 0L279 55Q271 53 259 52T235 50Q197 50 181 66T165 119V417H283L274 473H165V648L100 637V473H27V417H100V108Q100 43 133 18T223 -8Q244 -8 261 -6T289 0Z" />
<glyph unicode="u" glyph-name="u" horiz-adv-x="523" d="M446 0V473H380V131Q341 93 303 72T227 50Q182 50 161 75T139 147V473H73V135Q73 67 107 29T214 -10Q262 -10 303 12T384 70L395 0H446Z" />
<glyph unicode="v" glyph-name="v" horiz-adv-x="470" d="M440 473H372L236 77L96 479L31 467L203 -4H265L440 473Z" />
<glyph unicode="w" glyph-name="w" horiz-adv-x="730" d="M698 473H632L514 88L396 475H338L220 88L98 481L34 469L191 -3H246L366 385L485 -3H541L698 473Z" />
<glyph unicode="x" glyph-name="x" horiz-adv-x="470" d="M435 5L270 245L426 473H355L235 294L110 481L45 468L200 243L35 0H106L234 195L370 -7L435 5Z" />
<glyph unicode="y" glyph-name="y" horiz-adv-x="480" d="M450 473H382L242 76L95 479L31 467L210 -3L188 -60Q174 -95 156 -109T108 -123Q97 -123 87 -122T69 -119L78 -177Q83 -178 89 -179T104 -180Q157 -180 190 -154T250 -59L450 473Z" />
<glyph unicode="z" glyph-name="z" horiz-adv-x="449" d="M407 0L398 55H117L399 422V473H56L65 418H323L41 51V0H407Z" />
<glyph unicode="{" glyph-name="braceleft" horiz-adv-x="469" d="M414 -105L405 -53H319Q274 -53 256 -33T238 24Q238 55 244 92T251 163Q251 194 244 216T223 253T191 277T150 291V293Q172 298 191 307T223 331T243 368T251 421Q251 454 245 491T238 559Q238
596 257 617T320 638H409V690H318Q244 690 210 656T175 558Q175 523 181 490T187 420Q187 391 179 372T157 340T124 323T82 318H44L52 267H81Q127 267 157 245T187 164Q187 127 181 94T175 25Q175 -38 209 -71T318 -105H414Z" />
<glyph unicode="|" glyph-name="bar" horiz-adv-x="267" d="M163 -179V723L104 713V-189L163 -179Z" />
<glyph unicode="}" glyph-name="braceright" horiz-adv-x="469" d="M425 268L418 318H388Q365 318 346 323T312 340T290 372T282 421Q282 457 288 491T295 560Q295 624 261 657T152 690H55L64 638H150Q194 638 213 618T232 561Q232 530 225 493T218 422Q218 360
246 332T320 293V291Q274 281 246 253T218 163Q218 131 225 94T232 25Q232 -12 213 -32T149 -53H60V-105H152Q226 -105 260 -71T295 26Q295 61 289 94T282 164Q282 223 311 245T387 268H425Z" />
<glyph unicode="~" glyph-name="asciitilde" horiz-adv-x="408" d="M352 328L308 338Q301 309 292 297T272 285Q260 285 247 290T207 310Q184 323 168 329T132 336Q71 336 56 233L101 224Q107 253 116 265T137 277Q148 277 161 271T201 251Q224 238 240 232T276
226Q337 226 352 328Z" />
</font>
</defs>
</svg>
