<?xml version="1.0" standalone="no"?> <!DOCTYPE svg PUBLIC "-//W3C//DTD SVG 1.0//EN" "http://www.w3.org/TR/2001/REC-SVG-20010904/DTD/svg10.dtd" > <svg xmlns="http://www.w3.org/2000/svg" width="100%" height="100%">
<defs >
<font id="whitneybookitalic" horiz-adv-x="385" ><font-face
    font-family="Whitney-Book"
    units-per-em="1000"
    panose-1="2 0 6 3 4 0 0 9 0 3"
    ascent="0"
    descent="0"
    alphabetic="0" />
<missing-glyph horiz-adv-x="500" />
<glyph unicode=" " glyph-name="space" horiz-adv-x="216" />
<glyph unicode="!" glyph-name="exclam" horiz-adv-x="262" d="M243 690H163L101 190L148 200L243 690ZM148 98H70L55 0H132L148 98Z" />
<glyph unicode="&quot;" glyph-name="quotedbl" horiz-adv-x="382" d="M385 676H305L298 500L334 491L385 676ZM217 676H137L130 500L166 491L217 676Z" />
<glyph unicode="#" glyph-name="numbersign" horiz-adv-x="639" d="M617 440V497H508L543 672L493 683L456 497H271L307 678H252L217 497H77L87 440H206L165 236H47V179H155L120 4L171 -7L208 179H394L358 -2H411L446 179H586L576 236H457L498 440H617ZM445 440L404
236H219L260 440H445Z" />
<glyph unicode="$" glyph-name="dollar" horiz-adv-x="509" d="M404 671L427 743L378 755L354 679Q343 680 333 680T311 681Q264 681 226 668T161 632T120 576T105 505Q105 443 142 405T246 332L159 56Q123 65 90 80T28 113L14 51Q38 37 70 24T141 3L105 -112L153
-123Q153 -123 159 -105T172 -64T184 -23T190 -4Q200 -5 209 -5T228 -6Q276 -6 317 7T389 46T437 107T455 190Q455 248 421 289T308 371L386 618Q414 610 439 600T484 577L499 638Q479 648 456 656T404 671ZM207 48Q208 50 215 75T235 140T260 218T280 283T289
310Q347 279 370 251T394 185Q394 153 382 128T349 84T297 57T232 47Q225 47 219 47Q213 47 207 48ZM339 627L265 392Q209 421 187 447T164 509Q164 563 201 596T308 629Q316 629 323 629T339 627Z" />
<glyph unicode="%" glyph-name="percent" horiz-adv-x="834" d="M366 527Q366 597 334 640T239 684Q204 684 175 666T124 617T90 546T77 461Q77 390 109 347T203 304Q237 304 267 322T319 371T353 442T366 527ZM728 671L675 683L139 5L192 -7L728 671ZM238 637Q268
637 288 611T309 530Q309 495 302 463T280 406T247 366T204 351Q173 351 154 377T134 457Q134 492 141 524T163 582T196 622T238 637ZM790 215Q790 286 758 329T664 372Q629 372 600 354T548 305T514 234T501 149Q501 79 532 36T627 -8Q661 -8 691 10T743 59T777
130T790 215ZM733 219Q733 184 726 152T704 94T671 54T628 39Q598 39 578 65T558 146Q558 181 565 213T587 270T620 310T663 325Q694 325 713 299T733 219Z" />
<glyph unicode="&amp;" glyph-name="ampersand" horiz-adv-x="641" d="M487 165Q517 210 542 266T590 388L530 402Q513 346 494 299T451 214L304 413Q275 451 262 480T248 541Q248 587 277 616T358 645Q391 645 425 634T495 600L512 663Q478 682 441 692T361 703Q322
703 289 691T232 656T195 603T182 535Q182 496 195 462T238 388Q139 351 86 294T32 156Q32 117 45 86T83 32T141 -1T215 -13Q280 -13 337 18T446 109L532 -6L602 10L487 165ZM412 155Q368 99 320 72T222 44Q166 44 133 75T100 160Q100 220 141 266T272 343L412
155Z" />
<glyph unicode="&apos;" glyph-name="quotesingle" horiz-adv-x="214" d="M217 676H137L130 500L166 491L217 676Z" />
<glyph unicode="(" glyph-name="parenleft" horiz-adv-x="393" d="M396 662L400 727Q312 676 250 620T149 503T92 375T74 237Q74 186 85 142T116 57T165 -20T230 -96L292 -82Q253 -39 225 0T179 78T152 157T143 243Q143 371 204 476T396 662Z" />
<glyph unicode=")" glyph-name="parenright" horiz-adv-x="393" d="M343 390Q343 441 332 485T301 569T252 646T187 723L125 709Q164 665 192 626T238 549T265 470T274 383Q274 255 213 151T22 -35L18 -101Q106 -50 168 6T269 123T325 252T343 390Z" />
<glyph unicode="*" glyph-name="asterisk" horiz-adv-x="401" d="M397 576L390 596L266 570L254 696H231L219 570L95 596L89 576L204 525L140 413L157 401L243 498L327 401L345 413L280 525L397 576Z" />
<glyph unicode="+" glyph-name="plus" horiz-adv-x="570" d="M525 311L533 365H335L366 567H309L277 365H78L70 311H269L237 109H295L326 311H525Z" />
<glyph unicode="," glyph-name="comma" horiz-adv-x="214" d="M142 98H62L-24 -124L10 -133L142 98Z" />
<glyph unicode="-" glyph-name="hyphen" horiz-adv-x="360" d="M312 316H69L61 250H303L312 316Z" />
<glyph unicode="." glyph-name="period" horiz-adv-x="214" d="M124 98H46L30 0H108L124 98Z" />
<glyph unicode="/" glyph-name="slash" horiz-adv-x="512" d="M562 684L502 697L-92 -111L-33 -124L562 684Z" />
<glyph unicode="0" glyph-name="zero" horiz-adv-x="572" d="M541 430Q541 488 528 535T490 617T429 670T346 689Q285 689 234 655T145 562T86 422T64 246Q64 188 77 141T115 59T176 6T260 -13Q320 -13 371 21T460 114T519 254T541 430ZM474 427Q474 343 458 273T413
152T346 73T264 44Q202 44 167 96T131 249Q131 333 147 403T191 524T258 603T341 632Q403 632 438 580T474 427Z" />
<glyph unicode="1" glyph-name="one" horiz-adv-x="338" d="M308 679H257L84 605V552L234 608L137 0H201L308 679Z" />
<glyph unicode="2" glyph-name="two" horiz-adv-x="510" d="M488 528Q488 600 443 644T313 689Q259 689 212 671T122 623V559Q171 593 217 611T307 630Q361 630 391 601T421 523Q421 474 395 431T312 334L15 49L8 0H417V58H104L348 292Q387 329 413 359T456 416T480
471T488 528Z" />
<glyph unicode="3" glyph-name="three" horiz-adv-x="491" d="M472 536Q472 606 423 647T290 689Q239 689 196 674T111 633V571Q200 631 285 631Q339 631 372 605T405 528Q405 493 390 467T348 422T284 395T201 386H172V328H194Q276 328 320 294T365 194Q365 159
353 131T319 84T267 54T202 44Q159 44 116 59T28 103L8 43Q50 17 98 2T198 -13Q248 -13 291 2T365 44T413 111T431 197Q431 258 398 296T311 355Q341 363 370 377T421 413T458 465T472 536Z" />
<glyph unicode="4" glyph-name="four" horiz-adv-x="568" d="M535 215H422L497 678H418L35 206L28 161H355L328 0H388L414 161H526L535 215ZM362 215H109L425 606L362 215Z" />
<glyph unicode="5" glyph-name="five" horiz-adv-x="494" d="M483 620V676H168L98 366Q244 352 308 311T372 194Q372 160 360 133T327 86T277 56T213 45Q165 45 123 58T36 97L16 38Q58 15 105 1T209 -13Q255 -13 297 1T370 44T419 111T438 201Q438 293 371 346T167
417L214 620H483Z" />
<glyph unicode="6" glyph-name="six" horiz-adv-x="537" d="M138 346Q153 399 182 445T253 528T349 591T469 631V691Q374 672 298 629T168 526T87 389T58 225Q58 111 111 49T256 -13Q305 -13 348 6T423 58T474 135T493 229Q493 316 447 361T322 406Q271 406 226
389T138 346ZM125 283Q170 315 216 332T308 350Q365 350 396 318T427 224Q427 186 414 153T379 96T326 57T260 43Q195 43 159 92T122 229Q122 256 125 283Z" />
<glyph unicode="7" glyph-name="seven" horiz-adv-x="506" d="M525 676H111V619H444L86 8L145 -7L517 629L525 676Z" />
<glyph unicode="8" glyph-name="eight" horiz-adv-x="535" d="M311 376Q237 411 208 443T179 514Q179 537 188 559T215 597T259 624T318 634Q377 634 411 605T445 527Q445 479 411 442T311 376ZM263 336Q308 315 337 297T384 261T408 223T415 179Q415 149 403
124T370 81T320 53T256 42Q223 42 195 51T146 77T114 117T102 167Q102 219 141 261T263 336ZM206 365Q123 329 80 280T37 162Q37 126 51 94T92 39T160 2T252 -12Q303 -12 345 3T417 44T465 106T482 184Q482 238 453 277T366 349Q429 378 469 421T509 531Q509 565
496 594T459 644T400 677T320 689Q272 689 234 675T169 636T128 578T114 509Q114 461 137 426T206 365Z" />
<glyph unicode="9" glyph-name="nine" horiz-adv-x="537" d="M427 319Q395 215 311 143T97 45V-15Q192 4 268 46T398 149T481 286T510 451Q510 565 457 627T312 689Q262 689 219 670T145 616T95 537T76 441Q76 353 122 308T247 262Q297 262 341 277T427 319ZM442
384Q397 353 352 336T261 318Q203 318 173 351T142 447Q142 485 154 519T189 578T242 618T308 633Q374 633 410 584T446 447Q446 430 445 415T442 384Z" />
<glyph unicode=":" glyph-name="colon" horiz-adv-x="223" d="M187 473H109L94 376H172L187 473ZM129 98H51L36 0H114L129 98Z" />
<glyph unicode=";" glyph-name="semicolon" horiz-adv-x="223" d="M192 473H114L99 376H177L192 473ZM137 98H57L-29 -124L5 -133L137 98Z" />
<glyph unicode="&lt;" glyph-name="less" horiz-adv-x="570" d="M472 89L482 151L142 336L541 520L552 587L78 364L70 312L472 89Z" />
<glyph unicode="=" glyph-name="equal" horiz-adv-x="604" d="M554 418L564 478H114L104 418H554ZM519 198L529 258H79L69 198H519Z" />
<glyph unicode="&gt;" glyph-name="greater" horiz-adv-x="570" d="M131 587L120 525L461 340L62 156L51 89L525 312L533 364L131 587Z" />
<glyph unicode="?" glyph-name="question" horiz-adv-x="459" d="M190 357L174 190L220 200L249 320Q303 343 343 366T410 417T449 476T462 550Q462 619 416 661T289 703Q230 703 186 687T100 644V578Q148 610 191 626T280 643Q331 643 362 617T394 543Q394 514
384 490T352 445T296 405T214 367L190 357ZM221 98H144L129 0H205L221 98Z" />
<glyph unicode="@" glyph-name="at" horiz-adv-x="829" d="M485 206Q438 148 408 124T351 99Q325 99 309 119T293 183Q293 231 306 270T342 337T393 380T451 395Q471 395 485 392T516 382L485 206ZM481 145Q486 98 517 73T600 47Q637 47 669 65T725 118T763 201T777
312Q777 384 756 441T694 540T594 603T461 625Q374 625 299 592T169 499T83 358T51 183Q51 105 73 45T137 -56T238 -118T373 -140Q441 -140 498 -127T598 -92L593 -63Q548 -86 494 -98T377 -111Q312 -111 259 -93T167 -38T108 54T87 184Q87 275 116 350T195 480T313
565T458 595Q523 595 576 576T666 521T723 432T743 311Q743 256 732 214T703 143T660 99T608 84Q572 84 556 103T539 153Q539 167 540 181T544 206L580 417Q552 429 521 437T457 445Q414 445 374 426T303 371T252 286T233 176Q233 144 241 120T264 80T296 56T336
47Q374 47 407 71T481 145Z" />
<glyph unicode="A" glyph-name="A" horiz-adv-x="642" d="M574 8L427 694H366L-2 0H69L184 223H461L508 -7L574 8ZM449 282H214L383 607L449 282Z" />
<glyph unicode="B" glyph-name="B" horiz-adv-x="526" d="M492 536Q492 609 442 649T303 690H159L49 0H218Q274 0 321 14T401 56T454 122T473 213Q473 271 442 307T361 363Q417 383 454 426T492 536ZM424 529Q424 497 411 472T375 428T321 400T254 390H178L216
633H300Q359 633 391 606T424 529ZM405 209Q405 137 357 97T225 57H124L169 334H245Q323 334 364 301T405 209Z" />
<glyph unicode="C" glyph-name="C" horiz-adv-x="580" d="M582 641Q550 669 506 685T402 702Q328 702 266 668T158 575T88 440T62 281Q62 211 81 157T134 65T215 8T318 -12Q370 -12 415 1T501 41V109Q417 49 322 49Q280 49 245 64T185 110T145 184T131 285Q131
355 150 419T205 533T290 612T399 641Q448 641 489 623T565 571L582 641Z" />
<glyph unicode="D" glyph-name="D" horiz-adv-x="644" d="M614 406Q614 538 539 614T322 690H159L49 0H223Q308 0 377 28T499 108Q554 162 584 237T614 406ZM543 402Q543 321 518 255T447 144Q405 103 351 81T229 59H126L217 631H314Q429 631 486 571T543 402Z" />
<glyph unicode="E" glyph-name="E" horiz-adv-x="472" d="M496 690H159L49 0H396L405 59H126L169 331H389V391H179L217 631H486L496 690Z" />
<glyph unicode="F" glyph-name="F" horiz-adv-x="446" d="M483 690H159L49 0H117L167 320H379V380H177L217 631H473L483 690Z" />
<glyph unicode="G" glyph-name="G" horiz-adv-x="637" d="M586 362H347V302H510L475 85Q449 69 413 59T332 48Q289 48 252 63T188 109T146 183T131 284Q131 356 151 420T208 534T293 612T401 641Q453 641 499 623T580 573L597 643Q563 670 516 686T408 702Q333
702 270 667T160 574T87 439T61 280Q61 214 80 160T135 68T219 9T328 -12Q388 -12 437 4T535 49L586 362Z" />
<glyph unicode="H" glyph-name="H" horiz-adv-x="659" d="M643 690H576L529 391H179L226 690H159L49 0H117L169 331H519L467 0H534L643 690Z" />
<glyph unicode="I" glyph-name="I" horiz-adv-x="256" d="M233 690H166L56 0H123L233 690Z" />
<glyph unicode="J" glyph-name="J" horiz-adv-x="351" d="M339 690H272L192 179Q181 110 150 82T69 54Q49 54 32 57T-2 65V2Q12 0 29 -3T70 -6Q147 -6 195 37T258 176L339 690Z" />
<glyph unicode="K" glyph-name="K" horiz-adv-x="569" d="M602 690H517L176 376L226 690H159L49 0H117L173 356L444 -7L514 9L245 366L602 690Z" />
<glyph unicode="L" glyph-name="L" horiz-adv-x="437" d="M373 0V59H125L226 690H159L49 0H373Z" />
<glyph unicode="M" glyph-name="M" horiz-adv-x="861" d="M807 690H723L408 95L281 690H199L35 0H97L235 589L368 -4H415L735 589L687 0H752L807 690Z" />
<glyph unicode="N" glyph-name="N" horiz-adv-x="658" d="M643 690H581L494 137L223 690H159L49 0H112L204 586L492 0H533L643 690Z" />
<glyph unicode="O" glyph-name="O" horiz-adv-x="690" d="M660 404Q660 468 643 523T592 618T510 680T398 703Q328 703 267 671T160 582T88 449T62 286Q62 222 79 167T130 72T211 10T323 -13Q393 -13 454 19T562 108T634 241T660 404ZM590 402Q590 327 570 262T514
149T430 74T326 46Q281 46 246 63T185 112T146 188T132 288Q132 363 152 428T208 541T292 616T395 644Q440 644 476 627T537 578T576 502T590 402Z" />
<glyph unicode="P" glyph-name="P" horiz-adv-x="503" d="M504 511Q504 599 449 644T288 690H159L49 0H117L163 291H241Q302 291 350 307T433 352T485 421T504 511ZM437 505Q437 473 426 445T391 396T333 363T252 351H173L217 631H287Q363 631 400 598T437 505Z" />
<glyph unicode="Q" glyph-name="Q" horiz-adv-x="690" d="M571 -80L391 -1Q450 14 499 50T584 140T640 261T660 406Q660 469 643 523T592 617T510 680T398 703Q328 703 267 671T160 582T88 449T62 286Q62 230 73 185T108 105T167 43T251 -7L553 -145L571 -80ZM590
402Q590 327 570 262T514 148T430 73T326 45Q281 45 246 62T185 112T146 188T132 288Q132 363 152 428T208 541T292 616T395 644Q440 644 476 627T537 578T576 502T590 402Z" />
<glyph unicode="R" glyph-name="R" horiz-adv-x="540" d="M505 521Q505 606 448 648T292 690H159L49 0H117L165 305H243L417 -7L486 8L317 313Q404 329 454 383T505 521ZM437 515Q437 447 390 405T254 363H175L217 631H291Q437 631 437 515Z" />
<glyph unicode="S" glyph-name="S" horiz-adv-x="490" d="M471 656Q442 673 402 686T312 699Q266 699 228 685T163 645T122 586T107 512Q107 481 115 457T142 411T189 368T259 322Q290 303 311 287T344 255T362 222T367 182Q367 152 356 128T325 86T278 59T219
49Q170 49 124 67T41 112L25 46Q57 24 107 8T215 -9Q260 -9 300 4T371 44T418 107T436 191Q436 221 429 246T404 294T358 339T288 387Q226 424 200 453T174 520Q174 544 182 566T207 604T249 631T306 641Q349 641 386 627T455 590L471 656Z" />
<glyph unicode="T" glyph-name="T" horiz-adv-x="541" d="M580 631V690H102L92 631H301L201 0H269L368 631H580Z" />
<glyph unicode="U" glyph-name="U" horiz-adv-x="658" d="M652 690H585L515 251Q500 154 450 102T313 49Q232 49 190 93T147 215Q147 229 148 245T152 276L217 690H150L86 285Q83 266 82 247T80 210Q80 156 96 115T143 46T215 4T309 -11Q418 -11 489 53T581 239L652 690Z" />
<glyph unicode="V" glyph-name="V" horiz-adv-x="634" d="M671 690H599L292 93L171 697L104 682L250 -4H304L671 690Z" />
<glyph unicode="W" glyph-name="W" horiz-adv-x="983" d="M1013 690H941L689 113L597 690H530L255 113L185 697L115 682L207 0H261L547 590L646 0H700L1013 690Z" />
<glyph unicode="X" glyph-name="X" horiz-adv-x="597" d="M613 690H536L325 415L195 695L127 681L282 362L-5 0H72L309 307L455 -6L524 9L354 361L613 690Z" />
<glyph unicode="Y" glyph-name="Y" horiz-adv-x="589" d="M634 690H558L312 347L170 697L101 683L269 286L224 0H291L336 287L634 690Z" />
<glyph unicode="Z" glyph-name="Z" horiz-adv-x="572" d="M586 690H145V632H494L25 47L18 0H486V58H111L579 643L586 690Z" />
<glyph unicode="[" glyph-name="bracketleft" horiz-adv-x="387" d="M409 690H166L41 -105H287V-54H111L220 639H401L409 690Z" />
<glyph unicode="\" glyph-name="backslash" horiz-adv-x="512" d="M550 -112L78 696L18 684L491 -125L550 -112Z" />
<glyph unicode="]" glyph-name="bracketright" horiz-adv-x="387" d="M363 690H117V639H293L183 -54H3L-5 -105H238L363 690Z" />
<glyph unicode="^" glyph-name="asciicircum" horiz-adv-x="456" d="M408 554L331 695H270L142 550H186L292 632L374 547L408 554Z" />
<glyph unicode="_" glyph-name="underscore" horiz-adv-x="461" d="M417 -52H-47L-56 -105H409L417 -52Z" />
<glyph unicode="`" glyph-name="grave" horiz-adv-x="456" d="M360 550L286 703L200 684L316 550H360Z" />
<glyph unicode="a" glyph-name="a" horiz-adv-x="484" d="M332 97L334 0H390L393 137L444 450Q409 464 377 472T307 480Q253 480 205 456T119 387T61 282T39 149Q39 72 72 31T162 -10Q204 -10 245 19T332 97ZM334 163Q278 103 242 75T173 46Q141 46 123 73T104
155Q104 215 120 264T164 350T226 405T299 425Q324 425 340 422T374 411L334 163Z" />
<glyph unicode="b" glyph-name="b" horiz-adv-x="488" d="M42 27Q77 13 114 4T188 -6Q242 -6 289 17T372 81T428 180T449 309Q449 394 412 438T313 483Q269 483 234 459T164 398L215 718L150 706L42 27ZM112 66L153 325Q200 376 234 401T302 427Q341 427 362 394T384
302Q384 242 369 195T328 115T268 65T197 48Q173 48 153 52T112 66Z" />
<glyph unicode="c" glyph-name="c" horiz-adv-x="414" d="M403 443Q378 460 348 471T275 483Q225 483 182 460T108 396T59 302T41 189Q41 142 54 105T91 43T148 4T222 -10Q257 -10 288 0T348 31V91Q314 68 287 57T229 46Q172 46 139 84T105 193Q105 239 118 281T154
356T207 408T271 427Q306 427 332 415T386 380L403 443Z" />
<glyph unicode="d" glyph-name="d" horiz-adv-x="488" d="M489 718L423 706L386 464Q367 470 346 475T298 480Q245 480 198 457T115 393T60 293T39 165Q39 80 76 35T175 -10Q220 -10 257 16T335 87L337 0H394L397 133L489 718ZM377 407L335 148Q288 97 254 72T186
46Q147 46 126 79T104 171Q104 231 119 278T161 358T221 408T292 425Q316 425 335 421T377 407Z" />
<glyph unicode="e" glyph-name="e" horiz-adv-x="447" d="M116 284Q134 353 173 392T256 432Q307 432 327 393T343 284H116ZM107 235H402Q405 252 407 271T409 307Q409 392 370 437T259 483Q218 483 179 462T108 402T59 309T40 187Q40 93 87 42T215 -10Q260 -10
298 4T374 44V105Q332 75 298 60T224 45Q167 45 136 83T105 191Q105 202 105 213T107 235Z" />
<glyph unicode="f" glyph-name="f" horiz-adv-x="280" d="M333 655V712Q318 715 290 715Q231 715 197 688T152 599L132 473H61L53 419H123L28 -183L94 -172L187 419H290V473H195L214 590Q225 659 289 659Q303 659 314 658T333 655Z" />
<glyph unicode="g" glyph-name="g" horiz-adv-x="488" d="M446 446Q412 460 375 470T300 480Q246 480 199 457T116 393T61 293T40 166Q40 88 77 44T176 0Q221 0 256 24T326 86L314 12Q303 -54 270 -89T174 -124Q138 -124 101 -114T27 -87L11 -144Q45 -159 86 -169T169
-180Q258 -180 310 -132T379 18L446 446ZM377 407L337 158Q292 107 257 82T188 56Q149 56 127 86T105 173Q105 231 120 278T161 357T221 407T292 425Q316 425 335 421T377 407Z" />
<glyph unicode="h" glyph-name="h" horiz-adv-x="488" d="M441 380Q441 430 413 456T331 483Q289 483 247 453T160 375L215 718L150 706L38 0H102L148 297Q201 359 243 392T317 425Q347 425 361 409T375 362Q375 356 375 347T372 330L320 0H384L438 341Q440 349
440 361T441 380Z" />
<glyph unicode="i" glyph-name="i" horiz-adv-x="224" d="M222 634Q222 654 209 668T175 682Q155 682 142 668T128 634Q128 614 141 601T175 587Q195 587 208 600T222 634ZM182 473H118L42 0H106L182 473Z" />
<glyph unicode="j" glyph-name="j" horiz-adv-x="224" d="M222 634Q222 654 209 668T175 682Q155 682 142 668T128 634Q128 614 141 601T175 587Q195 587 208 600T222 634ZM182 473H118L33 -64Q23 -124 -27 -124Q-46 -124 -66 -119V-176Q-59 -177 -47 -178T-23
-180Q25 -180 55 -157T95 -73L182 473Z" />
<glyph unicode="k" glyph-name="k" horiz-adv-x="437" d="M445 473H360L145 270L215 718L150 706L38 0H102L142 251L319 -7L388 6L210 259L445 473Z" />
<glyph unicode="l" glyph-name="l" horiz-adv-x="224" d="M220 718L154 706L42 0H106L220 718Z" />
<glyph unicode="m" glyph-name="m" horiz-adv-x="759" d="M425 297Q477 359 518 392T590 425Q621 425 634 409T647 362Q647 356 646 348T643 330L591 0H655L709 341Q712 360 712 380Q712 430 685 456T605 483Q564 483 522 454T435 376V380Q435 430 409 456T330
483Q288 483 244 451T153 368L151 473H95L92 340L38 0H102L148 297Q200 359 242 392T315 425Q346 425 358 409T370 362Q370 356 369 348T366 330L314 0H378L425 297Z" />
<glyph unicode="n" glyph-name="n" horiz-adv-x="488" d="M441 380Q441 430 413 456T331 483Q287 483 243 451T153 368L151 473H95L92 340L38 0H102L148 297Q201 359 243 392T317 425Q347 425 361 409T375 362Q375 356 375 347T372 330L320 0H384L438 341Q440
349 440 361T441 380Z" />
<glyph unicode="o" glyph-name="o" horiz-adv-x="477" d="M437 282Q437 378 392 430T267 483Q217 483 176 459T104 395T58 302T41 191Q41 95 86 43T210 -10Q260 -10 301 14T373 78T420 171T437 282ZM372 280Q372 236 361 194T329 118T279 64T215 43Q192 43 172
51T137 78T114 124T105 194Q105 237 116 279T149 355T199 409T263 430Q285 430 305 422T340 395T363 349T372 280Z" />
<glyph unicode="p" glyph-name="p" horiz-adv-x="488" d="M9 -183L74 -171L103 9Q121 3 142 -1T190 -6Q243 -6 290 17T373 81T429 180T450 309Q450 394 413 438T314 483Q269 483 231 457T153 387L151 473H95L92 340L9 -183ZM112 66L153 325Q200 376 234 401T302
427Q342 427 363 394T384 302Q384 242 369 195T328 115T268 65T197 48Q173 48 153 52T112 66Z" />
<glyph unicode="q" glyph-name="q" horiz-adv-x="488" d="M446 446Q412 460 375 470T300 480Q246 480 199 457T116 393T60 293T39 165Q39 80 76 35T175 -10Q219 -10 254 14T324 76L283 -183L348 -172L446 446ZM377 407L335 148Q288 97 254 72T186 46Q147 46 126
79T104 171Q104 231 119 278T161 358T221 408T292 425Q316 425 335 421T377 407Z" />
<glyph unicode="r" glyph-name="r" horiz-adv-x="317" d="M328 417V481Q301 481 277 472T231 445T190 405T153 356L151 473H95L92 340L38 0H102L147 282Q184 339 226 375T328 417Z" />
<glyph unicode="s" glyph-name="s" horiz-adv-x="381" d="M350 448Q323 463 290 473T219 483Q186 483 159 474T111 447T79 404T67 348Q67 325 74 307T95 274T132 244T185 215Q232 191 250 173T269 125Q269 89 242 67T176 45Q131 45 93 61T25 101L8 41Q37 20 78
5T168 -10Q202 -10 232 -1T284 26T318 71T331 134Q331 159 324 178T302 213T263 245T205 278Q162 299 145 315T128 358Q128 387 151 407T213 428Q246 428 276 417T334 386L350 448Z" />
<glyph unicode="t" glyph-name="t" horiz-adv-x="315" d="M305 419V473H196L223 648L157 637L132 473H61L52 419H123L78 134Q76 125 75 109T73 83Q73 34 101 13T178 -8Q198 -8 215 -6T243 -1V53Q233 51 221 49T195 47Q139 47 139 96Q139 102 140 117T143 138L187
419H305Z" />
<glyph unicode="u" glyph-name="u" horiz-adv-x="488" d="M450 473H386L340 176Q287 114 245 81T171 48Q141 48 127 64T112 111Q112 117 113 126T116 143L168 473H104L50 132Q48 124 48 113T47 93Q47 43 75 17T157 -10Q201 -10 245 22T334 105L337 0H393L396 133L450
473Z" />
<glyph unicode="v" glyph-name="v" horiz-adv-x="438" d="M447 473H380L194 82L128 479L64 467L153 -4H208L447 473Z" />
<glyph unicode="w" glyph-name="w" horiz-adv-x="690" d="M697 473H633L460 93L410 475H355L185 93L130 481L68 469L146 -3H196L367 379L419 -3H469L697 473Z" />
<glyph unicode="x" glyph-name="x" horiz-adv-x="440" d="M436 473H364L227 294L142 481L79 468L188 245L-5 0H67L214 194L309 -7L372 5L254 243L436 473Z" />
<glyph unicode="y" glyph-name="y" horiz-adv-x="447" d="M457 473H390L203 80L128 479L64 467L160 3L127 -59Q109 -93 89 -108T42 -124Q31 -124 23 -123T6 -120V-177Q12 -178 19 -179T34 -180Q59 -180 80 -175T119 -156T153 -120T186 -66L457 473Z" />
<glyph unicode="z" glyph-name="z" horiz-adv-x="427" d="M414 473H89V420H329L9 50L1 0H348V53H86L405 424L414 473Z" />
<glyph unicode="{" glyph-name="braceleft" horiz-adv-x="457" d="M472 690H385Q301 690 262 653T220 541Q220 533 220 521T219 494Q219 481 219 469T218 449Q216 375 182 346T89 317H54V268H79Q131 268 154 250T177 193Q177 172 171 146T157 94T143 42T137 -5Q137
-58 169 -81T259 -105H350V-55H273Q197 -55 197 2Q197 21 203 46T218 97T232 150T239 198Q239 239 217 260T153 290V292Q181 298 204 308T244 335T270 380T281 446Q281 454 281 466Q281 478 281 491Q281 505 281 517T282 539Q283 586 305 613T381 640H465L472 690Z"
/>
<glyph unicode="|" glyph-name="bar" horiz-adv-x="266" d="M163 -179V723L103 713V-189L163 -179Z" />
<glyph unicode="}" glyph-name="braceright" horiz-adv-x="457" d="M420 268V317H395Q343 317 321 335T298 392Q298 413 304 439T317 491T331 543T338 590Q338 643 305 666T215 690H124V640H201Q277 640 277 583Q277 564 271 539T257 487T243 434T237 387Q237
347 258 326T321 296V294Q293 288 270 278T231 250T205 205T194 139Q194 131 194 118Q194 106 194 93T193 67Q193 55 193 46Q191 -2 169 -28T94 -55H11L3 -105H90Q173 -105 213 -68T255 44Q255 52 255 64Q255 77 255 90T256 116T257 137Q258 211 292 239T386 268H420Z"
/>
<glyph unicode="~" glyph-name="asciitilde" horiz-adv-x="403" d="M365 329L321 339Q310 310 299 298T277 285Q265 285 254 290T217 311Q197 324 182 330T147 337Q86 337 52 233L96 224Q107 253 118 265T140 277Q146 277 151 276T163 272T178 264T200 251Q221
238 235 232T270 226Q332 226 365 329Z" />
</font>
</defs>
</svg>
